<svg id="Camada_1" data-name="Camada 1" xmlns="http://www.w3.org/2000/svg" viewBox="0 0 1024 1184.37"><defs><style>.cls-1{fill:#ffc300;}</style></defs><path class="cls-1" d="M2108.76,680.8v559.92c-18,4.35-36,8.45-53.83,13.16-11.48,3-22.74,7.5-26.87,20-2.74,8.3-3.77,17.21-5.16,25.91-1.1,6.81-1.16,13.8-2.42,20.56-3.22,17.23-9.64,33.42-17.84,48.8-8.78,16.47-22,26.39-41.65,25.68a165.51,165.51,0,0,1-55.78-11.82,66.09,66.09,0,0,1-20.44-12.76c-8.77-8.23-8-19.85-5.62-30.3a297.83,297.83,0,0,1,12.54-40.16c7.19-18.55,19.19-33.5,36.67-43.7,11-6.42,22.24-12.52,32.53-19.95,13-9.4,18.24-19.42,9.75-36.06-3.33-6.54-8.84-12.24-14.27-17.37-8.28-7.83-18.81-11.87-30-12.76-13.42-1.07-22.49,6.35-29.63,17.1s-14.33,21.72-22.56,31.71c-10.09,12.24-24.45,18.57-38.56,25.12-8.43,3.9-17.4,7.63-24.37,13.52-15.7,13.27-23.75,31.71-30,50.83-4.35,13.25-2.93,25.71,6.72,36.52,5.62,6.31,11.58,12.34,16.82,19,11.72,14.81,14.7,29,6.46,46.41-9.11,19.25-22.94,34.62-39.22,47.87-6.23,5.07-13.31,9.24-21.69,9.78-14.84.94-24.22-7.21-30.74-19.38-6.23-11.64-7.68-24.55-8.08-37.4-.37-11.93.45-23.9.87-35.85.59-17.14-7.34-28.84-22.37-36.52-14.77-7.55-30.7-10.48-46.86-10.6-24.71-.18-49.42,1.6-74.13,1.63-22.22,0-44.44-1.56-66.67-1.68-13.7-.08-24.32-6.34-33.4-15.21q-20-19.47-38.45-40.43a228.59,228.59,0,0,0-38.71-35.55c-20.18-14.39-40.87-28.09-61.78-41.41-17.09-10.89-31-10.77-45.69-.06-9.59,7-17,16.36-22.62,27-6.27,12-10.16,24.43-10,38.23s5.19,26,9.08,38.81c3.5,11.45,7.18,23,8.74,34.83,1.48,11.19.5,22.73.28,34.11-.39,20.08-10.4,34.56-27.83,43.34-23.36,11.75-48.33,19.44-73.55,26.12-18.4,4.87-32.44-2.86-40.56-18.76-6.95-13.59-6.88-28.17-5.24-42.54,2-17.77,7.49-34.8,14.08-51.49,3.8-9.65,7.79-19.44,6.68-30.31-.65-6.41-3.13-11.86-8.15-15.81-10.6-8.34-22.06-10.84-33.35-4.17-5.76,3.4-7.47,8.53-17.11,10v-30c9.34-2.62,9.54-15.72,0-14V680.8m872.53,648.49c6.06,0,10.87-4.26,11-9.69.12-5-2.83-8.16-7.64-8.14a11.24,11.24,0,0,0-11,10.9C1949.7,1327,1952.23,1329.3,1957.29,1329.29Z" transform="translate(-1084.76 -680.8)"/><path class="cls-1" d="M2052.62,1514.44c-12.24,2.83-24.51,5-37,1.09-16.31-5.14-27.09-17.1-37.51-29.76-7.87-9.56-15.59-19.51-24.84-27.61-12-10.51-26.66-15.76-42.81-17.63-15.64-1.82-29.94,1.16-42.93,9.29-19.34,12.11-32.82,30-44.17,49.25-7.92,13.45-16,26.56-28.52,36.2-8.23,6.32-17.52,10.51-27.89,11.45-14.87,1.36-28.81-2.39-42.24-8.66-22.29-10.4-41-25.94-60-41.11-9-7.2-19.11-12.06-31.25-12.32-10.33-.22-19.94,2.07-29.37,5.6-23.47,8.79-46.61,18.93-72,20.75a196,196,0,0,1-34.07-1c-13.54-1.4-26.89-4.73-40.44-6.06-14.65-1.43-29.43-1.42-44.15-2.21q-13.59-.72-27.16-2c-23-2.08-43.68-10.74-63.36-22.47-10.92-6.52-22.39-12.41-35.36-13.42-15.16-1.17-30.12,0-44.53,5.76-16.71,6.65-30.18,16.34-36.8,34.07-4.39,11.75-13,20.61-22.81,28.16-12,9.26-25.84,12.46-40.83,12-15.54-.52-24.75-17.7-36-28.38-6.17-5.88-11.74-9.6-21.91-6.74v-131c2.78-1,6.67-4.06,7.64-4.79,5.72-4.26,8.37,2.5,8.4,11.34,0,9.06-1.31,16.55-1,24.73.87,23.15.3,42.71,17.87,58.37,11.5,10.25,25,14.56,40,8.75a121.33,121.33,0,0,0,21-11.09,272.62,272.62,0,0,1,43.94-23.1c14.88-6,29.85-12,44.15-19.21,13.76-7,21-19,20.58-34.8-.41-14.24-1.26-28.47-2-42.69-.27-5.45-.15-11-1.22-16.32-3.16-15.77-6.93-31.42-10.28-47.16-3.84-18-4.23-35.57,4.83-52.66,10.71-20.19,31.08-27.58,51.63-17.71,27.6,13.24,53.24,29.6,75.53,50.56,13.62,12.82,25.59,27.39,38.39,41.09,11.3,12.08,22.42,24.36,34.25,35.9,4.45,4.33,10.31,8.52,16.19,9.86,16.16,3.66,32.59,7.15,49.07,8.12,17.3,1,34.78-1.46,52.19-1.46,16.72,0,33.61,0,50.14,2.17,19.09,2.5,27.7,8.16,31.75,32.43,2.43,14.59,3.5,29.42,6.2,44,4.91,26.46,16.46,49.1,40.12,64,17.3,10.86,35.76,10.33,50.52-4.9,15.36-15.85,30.29-32.1,45.33-48.26,5.06-5.45,9.51-11.51,14.87-16.64,6.79-6.5,13.62-13.3,21.52-18.22,13.5-8.43,29-6.78,43.62-4.27,22.31,3.84,44.29,9.52,66.45,14.28,9.87,2.12,19.73,3.72,29.5-1,11.45-5.54,18-15.08,21.38-26.72,5.71-19.65,10.87-39.46,16-59.27,3.52-13.56,6.18-27.35,10.06-40.8,2.86-9.91,9.73-17,18.91-22,14.61-7.89,30.6-11.5,46.5-15.43v30a6.74,6.74,0,0,1-1.73.92c-21.71,3.71-35.48,16-40.86,37.51-3.56,14.25-5.84,28.53.7,42.55,4.37,9.34,13.21,17.83,24.77,16.45,5.8-.7,11.42-2.9,17.12-4.43v115m-809.59-215.19,2.57,21.77c1,8.67,2,17.34,3.11,26,1.26,9.94,1.81,20.08,4.18,29.76,3.39,13.9,8.85,27.15,20.64,36.39,19.46,15.23,41.37,22,66.2,18.93,19.85-2.47,36.2-10.84,48.41-26.89,9.84-12.93,11.25-30.36,3.65-43-17-28.29-37.74-53.5-63.72-74.12-14.07-11.18-29.22-20.45-46.54-25.83s-30.26.78-35.55,18.11C1300.22,1264.81,1300.05,1271.54,1299.17,1277.54Zm226.2,117c-18.29.24-30.15,6.42-38.29,18.91-3.44,5.3-6,11.23-8.51,17.07-3.55,8.29-2.42,16.3,3.17,23.33,11.15,14,24.5,20.51,42.15,16.28a45.59,45.59,0,0,0,26.81-18.4c4.87-6.78,8.09-14.83,7.48-23.28C1556.71,1408.12,1541.25,1393.61,1525.37,1394.59Z" transform="translate(-1084.76 -680.8)"/><path class="cls-1" d="M1084.76,1738.93c4.31,37.87,37.31,52.54,55.2,60,16.54,6.94,34,10.33,51.27,14.25,14.33,3.24,28.78,6,43.63,5.1,17-1,31.6-6.86,42.2-20.66,7.33-9.54,14-19.54,21.5-29,8.44-10.7,18.74-17.71,33.1-19.77,12.79-1.83,25.32-6.34,37.6-10.71q25.26-9,49.94-19.64c12.87-5.54,19-16.27,21.31-30,1.93-11.52,5.31-22.8,8.18-34.15,2-8,3.19-16.39,6.59-23.75,9.69-21,33.1-22.23,46.38-3.34,6.25,8.91,7.82,19.08,10.15,29.16.41,1.76.43,3.66,1.1,5.3,4.93,12.06-.92,21.31-7.78,30.29s-16,15-25.09,21.26c-8.36,5.83-16.38,12.49-16.53,23.64a78.29,78.29,0,0,0,3,22.24c5.94,20.94,18.34,37.54,35.92,50.36,9.73,7.09,18.81,15.17,29,21.51,24.33,15.18,50.27,16.91,76.34,5.18,14-6.3,27.11-14.53,40.51-22.08a103.36,103.36,0,0,1,35.54-11.8c25-3.82,48.87,1.64,72.54,9,14.58,4.56,29.26,8.87,44.09,12.48,14.29,3.48,28.19,1,41.57-5,15.42-6.88,28.54-17.25,42-27.13a176,176,0,0,1,76.89-32.52,357.66,357.66,0,0,1,53.27-5c11.91-.16,23.86-.77,35.7-2,12.09-1.29,24.3-2.42,34.59-10.48,7.24-5.68,12-12.92,12.58-21.6.8-11.11-.63-22.35-.55-33.53.1-13.84-3.28-39.17,1.12-54.17,6.2-15.4,6-18.44,11.16-26.67v196c-17.56-7.34-29.8-12.42-44-19.34-15.07-7.37-31.65-8.52-48.19-11.23a142.12,142.12,0,0,0-42.26-.56c-17.59,2.37-34.72,6.32-50,15.31a320.91,320.91,0,0,0-36.61,25.73c-15.83,12.63-30.83,26.23-51.24,31.38a99.32,99.32,0,0,1-34.34,2.27c-24.15-2.35-46.41-12.06-69.72-17.69-9.69-2.34-19.74-4.52-29.63-4.5-15.63,0-31,3.18-45.17,10.38-13.21,6.71-26.17,13.93-39.44,20.51a107.25,107.25,0,0,1-59.07,10.61c-14.8-1.45-28.4-7.32-40.93-15.38-12-7.69-24-15.26-35.69-23.36-12.46-8.63-22.57-19.81-32.47-31.22-9.51-10.94-18.51-22.53-32.88-28-13.59-5.16-26.6-2.58-39.39,2.27-13.64,5.17-25.06,13.8-34.93,24.44-9.44,10.18-18.88,20.38-27.9,30.94-10.46,12.24-24,18.77-39.21,22.46-24.88,6.06-49.41,3.41-73.72-3.54-13.75-3.94-27.76-7.13-41.25-11.85-13.22-4.63-25.82-11-38.89-16.16-12.25-4.82-24.76-9-37.15-13.48Z" transform="translate(-1084.76 -680.8)"/><path class="cls-1" d="M1084.76,1605.73c25.33-5.26,50.55-11.14,76-15.63,26.34-4.64,47.32-18.53,67.22-35.17,9.08-7.6,18.48-15,28.56-21.2,16.57-10.14,34-8.45,51.23-1,11.83,5.12,23.39,11,35.42,15.54,10.51,4,21.67,3.85,32.79,2.22,17-2.49,33.91-5.11,50.93-7.12,12.47-1.48,25-3,37.55-2.81s24.85,2.66,37.28,4.14c4.25.5,8.51,1.61,12.74,1.49,16.74-.43,33.51-.71,50.19-2.08,13.11-1.08,26.07-3.85,39.14-5.57,31.4-4.12,60.33,1.13,86.13,21,19.84,15.29,39.37,31.2,62.36,41.93,17.07,8,34.43,10.39,52,2.42,6.81-3.1,13.06-7.78,18.93-12.53,7.71-6.25,14.89-13.17,22.11-20,10.6-10,17-22.7,23-35.71,5-10.86,9.43-22,15.39-32.33,8.91-15.38,28.84-14.11,38.16,1.07,9.19,15,10.65,31.37,5.07,47.57-5,14.54-12.13,28.35-18.37,42.47-5.25,11.89-8.87,24.29-7.61,37.32,2.32,24,15.56,42,40.36,48.09,14.82,3.62,29.38,2.67,43.33-4.32,8.49-4.26,13.7-11.39,17.58-19.51,6.36-13.33,12-27,18.32-40.36,10.14-21.54,26.36-88,47.18-99.16a167.53,167.53,0,0,1,36.3-22.68,24.53,24.53,0,0,1,4.73-1.12v16c-12.53,5-24.49,16.34-33.56,28.6-10.13,13.34-24.68,65.92-31.13,79.51a418.11,418.11,0,0,0-18.09,44.67c-8,23.46-24.38,36.73-48,41.06a185.79,185.79,0,0,1-37.89,3c-17.91-.43-35.5-3.5-50.58-14.57-8.75-6.42-14.32-15.43-20.37-24.13-5.92-8.53-11.87-17.12-18.64-25s-15.28-8.08-24-2.34c-6.85,4.49-13.28,9.79-20.53,13.5-19.57,10-36.45,6.78-51.64-7.92-20-19.36-38.63-40.17-58.4-59.8-7.34-7.28-15.93-13.45-24.52-19.27-10.53-7.13-23-9.41-35.33-10a254.46,254.46,0,0,0-40.29,1c-19.4,2.12-38.74,3.8-58.29,3.93-16.17.1-31.88-2.45-47.63-5.36-12.11-2.23-24.22-2.14-36.51-1-18.65,1.76-36.36,6.91-53.8,13.21-11.25,4.07-22.33,8.61-33.46,13-15,5.92-28.19,3.19-40.56-7-11.5-9.5-24.64-16.19-39.7-17.86a40.27,40.27,0,0,0-24.72,5.37c-12.91,7.49-25.47,15.63-38,23.76-16.62,10.79-33.92,20.13-53.46,24.23-10.18,2.13-20,4.7-29.44,9.27-15.38,7.45-24.56,19.82-30.54,35.31-3.65,9.46-6.07,16-10.27,24.36-2.64,4.6-9.3,27.36-14.67,60.68Z" transform="translate(-1084.76 -680.8)"/><path class="cls-1" d="M1808.24,1305.11c.11-19.39,12.07-35.79,31.89-40,7.37-1.55,14.53-4.64,22.26-1.88,5.95,2.12,8.5,5.14,8.39,11.32-.37,21.22-6.4,40.94-18.68,58.1-8.45,11.81-19.93,14.52-31.14,2.41C1813.1,1326.59,1807.43,1317.24,1808.24,1305.11Z" transform="translate(-1084.76 -680.8)"/><path class="cls-1" d="M1382.58,1366.79c-16.17,1-37.54-10.86-41.59-27.67a78.49,78.49,0,0,1-2.4-14c-.51-9.63-1.61-19.35,1.87-28.77,1.86-5,9.43-8.69,15.25-7.68,9.58,1.66,17.71,6.31,25.08,12.21a106.36,106.36,0,0,1,26.91,32c10.41,19-4,32.48-20.63,33.92C1385.58,1366.9,1384.07,1366.79,1382.58,1366.79Zm-10-37c-2.68,2.2-5.23,4.27-2.88,8.25,2,3.4,4.94,4.89,8.66,4.07,1.16-.25,2.82-2.15,2.79-3.26C1381,1333.43,1377.49,1330.87,1372.6,1329.75Z" transform="translate(-1084.76 -680.8)"/></svg>